<svg width="230" height="128" viewBox="0 0 230 128" fill="none" xmlns="http://www.w3.org/2000/svg">
<path d="M86.2824 2.90705C80.3717 4.48624 71.5778 7.7882 66.388 10.2288C56.585 15.1099 37.4114 31.3326 39.4297 33.1989C40.583 34.2039 65.9555 36.6444 88.4448 37.7929L98.9686 38.3672L97.9595 34.6345C96.3737 29.1791 96.8062 23.4366 98.9686 19.2733C101.419 14.8228 103.149 14.8228 102.284 19.4168C101.131 24.7287 108.627 31.6197 115.547 31.6197C122.755 31.6197 129.387 25.1594 128.378 19.2733L127.801 15.1099L130.684 18.5555C133.135 21.2832 134 24.1544 133.856 28.7484C133.856 29.1791 133.423 31.4761 132.991 33.9167L131.982 38.3672L143.947 37.7929C163.409 36.9316 188.637 34.491 190.8 33.1989C192.386 32.3375 190.8 30.1841 184.024 24.0109C173.068 14.105 158.796 6.63969 144.236 2.90705C129.099 -0.969162 101.131 -0.969162 86.2824 2.90705Z" fill="white"/>
<path d="M27.3201 49.1345C25.7343 52.5801 24.0044 57.0305 23.5719 59.0404C22.7069 62.0552 21.5536 63.0602 16.9404 63.778C5.98411 65.5008 -1.80064 77.9908 0.361794 90.1937C2.2359 100.674 10.1648 111.297 21.2653 118.189C32.7983 125.223 66.388 130.391 75.9027 126.659L79.5068 125.223L75.1819 124.218C61.054 120.916 59.0358 120.055 53.4134 114.312C43.6104 104.694 41.448 90.7679 47.7911 78.1343C51.8277 70.2383 57.1616 65.5008 66.0997 62.3424C77.3443 58.4662 83.3991 59.6147 99.4011 69.2334C108.195 74.5452 109.781 74.9759 116.845 74.4017C122.9 73.8274 126.792 72.3918 134 67.6542C145.389 60.3325 154.183 58.7533 164.995 62.3424C177.104 66.3621 186.908 79.4264 186.908 91.6293C186.908 107.852 173.212 123.357 158.796 123.5C150.723 123.644 149.714 126.084 157.354 127.233C180.564 130.679 208.964 122.208 221.795 107.996C228.426 100.817 230.589 93.7827 229.868 83.159C229.291 75.8373 228.57 73.971 224.39 69.6641C221.362 66.5057 217.47 64.3523 214.01 63.6344C208.676 62.6295 208.099 61.9117 205.793 54.8771C201.756 43.1049 201.756 43.1049 183.448 45.4019C137.892 51.0009 74.0286 50.4266 34.6724 43.8227C30.4917 43.1049 29.915 43.5356 27.3201 49.1345Z" fill="white"/>
<path d="M66.6764 87.0353C59.4683 94.0699 72.2987 109.144 85.5616 109.144C91.0397 109.144 96.0854 105.411 96.0854 101.392C96.0854 90.9115 73.7403 80.0007 66.6764 87.0353Z" fill="white"/>
<path d="M147.984 87.035C136.162 92.0598 131.261 102.109 138.181 106.847C142.361 109.862 147.407 109.718 154.615 106.416C165.572 101.535 170.041 91.4855 163.553 87.035C159.517 84.1638 154.471 84.1638 147.984 87.035Z" fill="white"/>
</svg>
