<svg width="80" height="80" viewBox="0 0 80 80" fill="none" xmlns="http://www.w3.org/2000/svg">
<path d="M37.5607 2.07034C38.0154 -0.690111 41.9846 -0.690112 42.4392 2.07033L47.1702 30.7923C47.3425 31.838 48.162 32.6576 49.2077 32.8298L77.9297 37.5607C80.6901 38.0154 80.6901 41.9846 77.9297 42.4392L49.2077 47.1702C48.162 47.3425 47.3424 48.162 47.1702 49.2077L42.4392 77.9297C41.9846 80.6901 38.0154 80.6901 37.5608 77.9297L32.8298 49.2077C32.6576 48.162 31.838 47.3424 30.7923 47.1702L2.07034 42.4392C-0.690111 41.9846 -0.690112 38.0154 2.07033 37.5608L30.7923 32.8298C31.838 32.6576 32.6576 31.838 32.8298 30.7923L37.5607 2.07034Z" fill="white"/>
</svg>
