<svg width="80" height="80" viewBox="0 0 80 80" fill="none" xmlns="http://www.w3.org/2000/svg">
<path d="M43.8771 10.7798C44.2992 8.09038 44.8768 4.55637 45.1434 2.93385L45.6099 -4.19617e-05H50.9196C53.8299 -4.19617e-05 56.207 0.0888634 56.207 0.177769C56.207 0.288902 55.2073 4.22298 53.9854 8.91275C52.7635 13.6025 51.6527 17.9145 51.5194 18.4923L50.1198 23.8267C48.8999 28.6419 48.8758 28.672 47.7041 30.1317L47.6982 30.139L46.543 31.3614L45.9876 31.8282C45.6766 32.0727 44.9212 32.5394 44.277 32.8284C43.0995 33.384 40.5447 33.9619 40.3003 33.7397C40.2336 33.673 40.4336 32.0727 40.7446 30.2057C41.4333 25.9604 42.8551 17.2254 43.8771 10.7798Z" fill="white"/>
<path d="M23.9932 14.8029C23.9932 14.7362 26.3259 14.6473 29.1696 14.6251C31.991 14.5806 34.4126 14.6028 34.5014 14.6473C34.9274 15.4619 35.3234 17.4034 35.3234 17.4034C35.59 18.4036 36.2121 20.5595 36.6786 22.2043L37.7092 25.976C38.0183 26.5944 40.4911 32.4699 39.6333 33.7398C35.5456 33.7069 33.8127 31.5171 33.8127 31.5171C33.8127 31.5171 29.9819 26.662 29.9819 25.976L29.6728 25.3575C29.5096 25.0473 29.3473 24.8048 28.6808 23.5601L27.7477 21.782L27.5478 21.5153L26.126 18.8259L24.2154 15.3585C24.1043 15.114 23.9932 14.8696 23.9932 14.8029Z" fill="white"/>
<path d="M0 34.1842V28.8721C0 23.8934 0.0222161 23.5377 0.399889 23.6489C1.84393 24.0489 18.0395 28.2942 19.9278 28.7387L24.7931 30.0279C27.5479 30.7169 28.5921 31.0947 29.5474 31.7171C30.5027 32.3394 31.7246 33.7397 31.7246 33.7397L32.3022 34.4731L32.6354 35.051C33.0131 35.7845 33.5241 37.5182 33.6574 38.5406C33.7906 39.4741 33.7684 39.563 33.3463 39.563C32.9242 39.563 29.9028 39.0962 16.3955 36.8736L8.39768 35.5845C6.88698 35.34 4.66538 34.9843 3.44349 34.7843C2.22161 34.5843 0.955291 34.3842 0.62205 34.3176L0 34.1842Z" fill="white"/>
<path d="M61.5094 25.9759C62.4367 25.3575 62.0494 25.6049 63.1602 25.0047L65.204 23.8934L65.2707 29.0944C65.2929 31.9616 65.2485 34.3843 65.1596 34.4732C64.9152 34.6732 46.8758 39.7853 46.3648 39.7853C46.076 39.7853 46.0094 39.652 46.076 39.2741C46.1426 39.0074 46.2537 38.4073 46.3204 37.9405C46.387 37.4738 46.6729 36.7992 46.6729 36.7992L46.982 35.8715C46.982 35.8715 47.5423 34.651 48.1421 33.962C49.4548 32.4699 51.3412 31.3393 52.3187 30.8058C53.2962 30.2724 55.6289 29.0277 57.4728 28.0275C59.3612 27.0273 59.9639 26.9036 60.5821 26.5944L61.5094 25.9759Z" fill="white"/>
<path d="M29.1033 41.23C29.281 41.1856 30.2363 40.8966 31.2138 40.6077C32.1913 40.2965 33.191 40.052 33.4354 40.052C33.8131 40.052 33.815 40.2129 33.815 40.2129V40.5101C33.6913 41.4378 33.8131 40.8077 33.4576 42.1413C33.0133 43.8527 32.455 44.5302 32.1459 45.1486C32.1459 45.1486 32.0107 45.4076 31.7692 45.742C31.5277 46.0763 29.4365 48.0313 27.4815 49.076C17.4176 54.4992 16.6912 54.735 16.073 55.0442C15.4548 55.3535 14.7739 55.9217 14.7739 55.9217C14.6184 55.9884 14.5739 54.1658 14.6184 50.6985L14.685 45.3641L15.7292 45.0308C16.6623 44.7418 23.0605 42.897 24.7711 42.4525C25.1488 42.3414 26.193 42.0524 27.1038 41.7857C28.0147 41.519 28.9255 41.2745 29.1033 41.23Z" fill="white"/>
<path d="M46.3206 42.208C46.2539 41.7857 46.1428 41.1856 46.0762 40.83C45.9873 40.4299 46.054 40.2299 46.2317 40.2299C46.4539 40.2299 55.718 41.7191 61.4275 42.6748C62.5383 42.8526 70.1806 44.0973 71.6469 44.3196C71.8912 44.364 73.8685 44.6752 76.0457 45.0308L80.0001 45.6531L79.9113 47.2312C79.8668 48.098 79.9113 48.307 79.9113 48.8595V49.5993C79.9113 50.8555 79.9335 50.254 79.9335 52.6767C79.9335 55.2327 79.8668 56.2329 79.6891 56.2329C79.5336 56.2329 77.5341 55.7217 75.2014 55.1216C72.891 54.4992 70.1362 53.788 69.092 53.5213L68.0006 53.1889C67.3982 53.0684 68.0249 53.1963 67.3824 53.0652C66.7642 52.8796 67.0733 53.0033 66.7593 52.8989C66.146 52.8796 51.8079 48.9871 50.9193 48.5426C50.0306 48.098 47.9095 45.7672 47.6004 45.1487C47.2913 44.5302 46.4983 43.2749 46.3206 42.208Z" fill="white"/>
<path d="M37.017 46.2986C34.4622 46.6764 31.8851 48.2545 30.5077 50.3216C29.8635 51.3218 29.508 52.3664 28.4861 56.3005C27.8196 58.9232 27.1087 61.657 26.9087 62.3905C26.7088 63.124 26.1089 65.48 25.5535 67.6137C24.9981 69.7475 24.3539 72.2368 24.1095 73.1259C23.8651 74.0372 23.986 73.821 23.8004 74.5261C23.6951 74.9262 23.6878 74.8162 23.4913 75.5447C23.1822 76.6908 23.3319 76.1264 23.0431 77.2378C22.7765 78.3713 22.4877 79.4382 22.4433 79.6604C22.3544 79.9938 22.7987 80.0161 27.6863 79.9938C30.6188 79.9716 33.0181 79.9272 33.0181 79.9049C33.0181 79.8605 34.2622 72.259 34.4844 70.8366C34.551 70.4587 35.1953 66.458 35.9062 61.946C37.217 53.8111 37.8835 49.6992 38.039 48.8324C38.2167 47.9211 38.4166 46.0541 38.3278 46.0763C38.2833 46.0985 37.6835 46.1875 37.017 46.2986Z" fill="white"/>
<path d="M39.989 46.2533C39.989 46.3866 40.3445 47.7647 40.7888 49.2983C42.8993 56.8108 44.921 63.9677 45.1209 64.6345L45.3653 65.3458L50.6749 65.3235L56.0068 65.3013L55.0293 63.4787C47.8091 50.0095 48.8368 51.6427 48.2186 50.715C47.6004 49.7873 47.841 50.1483 47.6004 49.7873C46.9822 48.8596 43.9879 46.6089 40.8332 46.1644C40.3223 46.0755 39.989 46.1199 39.989 46.2533Z" fill="white"/>
</svg>
