<svg width="64" height="64" viewBox="0 0 64 64" fill="none" xmlns="http://www.w3.org/2000/svg">
<path d="M0.551724 1.00741C0.855172 1.57037 4.74483 8.77037 9.15862 17.0074L17.2138 32L9.15862 46.9926C4.74483 55.2296 0.855172 62.4296 0.551724 62.9926L0 64H5.07586H10.1517L22.3448 41.3333C29.0483 28.8593 34.5379 18.5185 34.5379 18.3704C34.5379 18.1926 32.6069 18.0741 29.6 18.0741H24.6345L23.5034 20.3259C22.4552 22.3111 22.3172 22.4889 22.0138 22.0148C21.8207 21.7185 19.0897 16.6519 15.9172 10.7259L10.1517 1.13249e-06H5.07586H0L0.551724 1.00741Z" fill="white"/>
<path d="M19.9448 0.651853C20.1103 1.03704 21.2414 3.17037 22.4551 5.39259L24.6345 9.48148L36.7172 9.54074L48.7724 9.62963L34.731 35.7037C27.0345 50.0444 20.4689 62.2815 20.1655 62.8741L19.6414 64H39.3103H58.9793L61.4896 59.3185L64 54.6667L49.4345 54.5185L34.8689 54.3704L49.2138 27.7037C57.1034 13.037 63.6689 0.800001 63.8069 0.503705C64.0551 0.0296308 62.9241 1.13249e-06 41.8482 1.13249e-06H19.6138L19.9448 0.651853Z" fill="white"/>
</svg>
