<svg width="27" height="32" viewBox="0 0 27 32" fill="none" xmlns="http://www.w3.org/2000/svg">
<path d="M6.39723 2.44903C5.73158 3.82788 5.16102 4.99277 5.16102 5.06409C5.16102 5.1354 6.20705 5.70596 7.46703 6.34784L9.79681 7.51273L4.92329 9.10554C2.23691 9.96137 0.0260006 10.7221 0.00222732 10.7459C-0.0690924 10.7934 1.59503 15.9285 1.73767 16.0711C1.78522 16.1424 10.0821 13.5511 11.247 13.0994C11.4609 13.0281 10.3198 15.5243 8.48928 19.0665C6.75383 22.4186 5.37498 25.2 5.42253 25.2476C5.51762 25.3189 18.4027 31.8565 18.7593 31.9992C18.9257 32.0705 21.3268 27.4823 21.3268 27.0543C21.3268 26.9355 20.3046 26.3174 19.0684 25.6755L16.8099 24.5581L21.7072 22.9178C24.774 21.8955 26.5569 21.2061 26.4856 21.0397C26.4381 20.8733 26.0577 19.6609 25.6298 18.3058C25.2256 16.9745 24.8453 15.8809 24.7977 15.8809C24.7502 15.8809 22.5868 16.5703 19.9955 17.4024C17.4042 18.2582 15.2409 18.9001 15.1933 18.8526C15.1458 18.805 16.4533 16.0949 18.1412 12.8142C19.8053 9.53345 21.1366 6.82331 21.0653 6.77576C20.994 6.70444 8.27532 0.238115 7.77608 0.000382749C7.70476 -0.0233905 7.08666 1.07018 6.39723 2.44903Z" fill="black"/>
</svg>
