<svg width="215" height="56" viewBox="0 0 215 56" fill="none" xmlns="http://www.w3.org/2000/svg">
<path d="M71.054 8.27273H82.0511L90.6619 25.3153H91.0199L99.6307 8.27273H110.628L95.733 35.3977V49H85.9489V35.3977L71.054 8.27273ZM114.615 49V43.392L134.402 16.267L114.635 16.267V8.27273L146.851 8.27273V13.8807L127.064 41.0057L146.831 41.0057V49L114.615 49ZM171.624 8.27273V49H161.8V17.4602H161.562L152.454 23.0284V14.517L162.496 8.27273H171.624ZM196.119 49.5568C193.017 49.5568 190.266 49.0265 187.866 47.9659C185.48 46.892 183.598 45.4138 182.219 43.5312C180.84 41.6487 180.137 39.4811 180.111 37.0284H190.014C190.054 37.9167 190.339 38.7055 190.869 39.3949C191.4 40.071 192.122 40.6013 193.037 40.9858C193.952 41.3703 194.992 41.5625 196.159 41.5625C197.326 41.5625 198.353 41.357 199.241 40.946C200.143 40.5218 200.846 39.9451 201.349 39.2159C201.853 38.4735 202.098 37.625 202.085 36.6705C202.098 35.7159 201.827 34.8674 201.27 34.125C200.713 33.3826 199.924 32.8059 198.903 32.3949C197.896 31.9839 196.703 31.7784 195.324 31.7784H191.366V24.7784H195.324C196.53 24.7784 197.591 24.5795 198.506 24.1818C199.434 23.7841 200.156 23.2273 200.673 22.5114C201.19 21.7822 201.442 20.947 201.429 20.0057C201.442 19.0909 201.223 18.2888 200.773 17.5994C200.335 16.8968 199.719 16.3532 198.923 15.9687C198.141 15.5843 197.233 15.392 196.199 15.392C195.112 15.392 194.124 15.5843 193.236 15.9687C192.361 16.3532 191.665 16.8968 191.148 17.5994C190.631 18.3021 190.359 19.1174 190.332 20.0455H180.926C180.953 17.6193 181.629 15.4848 182.955 13.642C184.28 11.786 186.083 10.3343 188.364 9.28693C190.657 8.23958 193.269 7.71591 196.199 7.71591C199.116 7.71591 201.681 8.22632 203.895 9.24716C206.109 10.268 207.832 11.66 209.065 13.4233C210.298 15.1733 210.915 17.1553 210.915 19.3693C210.928 21.6629 210.179 23.5521 208.668 25.0369C207.17 26.5218 205.241 27.4366 202.881 27.7812V28.0994C206.036 28.4706 208.416 29.4915 210.02 31.1619C211.637 32.8324 212.439 34.9205 212.426 37.4261C212.426 39.786 211.73 41.8807 210.338 43.7102C208.959 45.5265 207.037 46.9583 204.571 48.0057C202.118 49.0398 199.301 49.5568 196.119 49.5568Z" fill="black"/>
<path d="M34.0001 1.5C33.5007 2.32925 32.3678 4.19229 30.1925 7.64901C27.9955 11.0841 24.7326 16.3124 22.9054 19.229C21.0782 22.1673 18.9029 25.6024 18.0763 26.8987C13.0001 35 11.0001 38.5 10.1802 39.6886C10.1802 40.1855 13.095 40.704 15.8358 40.6824C18.1634 40.6824 18.7942 40.5959 20.2951 40.099C24.9937 38.5435 28.3435 35.2164 29.9097 30.5498C30.4318 29.0159 30.497 28.4758 30.497 25.9049C30.497 23.2691 30.4535 22.8154 29.888 21.2599C29.1484 19.121 28.3 17.6087 27.0384 16.226C26.4946 15.6211 26.0595 15.081 26.0595 15.0162C26.0595 14.9513 26.3858 14.8865 26.7774 14.8865C28.126 14.8649 30.5188 14.2384 32.085 13.4822C34.8258 12.1428 37.3491 9.37738 38.1539 6.82804L38.5001 5.6L36.8053 2.8528C35.8482 1.29728 35.0001 0 35.0001 0C35.0001 0 34.5007 0.829254 34.0001 1.5Z" fill="black"/>
<path d="M42.6788 14.4112C41.2649 15.4267 39.4377 17.6087 38.5893 19.2723C36.3053 23.766 36.4358 28.8431 38.9156 33.2072C39.3071 33.8769 40.373 35.1732 41.2649 36.0806C43.2008 38.0034 45.5066 39.2781 48.1604 39.8398C51.3145 40.5527 55.8173 39.9478 58.2318 38.4787L58.9062 38.0682L55.0342 31.9325C49.7701 23.6148 43.8253 14.0864 43.76 14C43.7 14 43.1356 14.0872 42.6788 14.4112Z" fill="black"/>
<path d="M58.1882 40.0991C55.839 45.1113 56.9918 50.9446 61.0596 54.6605L62.5 56H66C68.0882 56 70 56 70 56C70 56 70 56 68.46 53.5C67.4594 51.9444 65.5188 48.6113 64.4747 46.9045C62.2342 43.2533 59.5804 39.0837 59.2324 38.6948C59.0366 38.4787 58.8191 38.7812 58.1882 40.0991Z" fill="black"/>
<path d="M32.1506 41.6978C25.7336 42.6268 20.8175 47.7903 20.0127 54.4229L19.8169 56L30.0001 56C35.5001 56 42.1291 56 44.5001 56H49.0001L48.7913 54.3581C47.8342 46.1267 40.4383 40.4663 32.1506 41.6978Z" fill="black"/>
<path d="M6.35204 49.0001C3.95927 49.389 3.91576 49.4106 1.91453 52.6081C0.892158 54.2284 0.0435051 55.8919 0 56C0 56 4.43135 55.9999 10 55.9999C15.3946 55.9999 20 56 20 56C20 55.5895 17.3371 52.5001 16.554 51.8951C13.5521 49.5618 9.74544 48.4816 6.35204 49.0001Z" fill="black"/>
</svg>
