<svg width="80" height="64" viewBox="0 0 80 64" fill="none" xmlns="http://www.w3.org/2000/svg">
<path d="M39.428 0.766563C39.2043 1.211 36.9918 4.79118 34.5058 8.74173C31.9949 12.6676 28.2659 18.6428 26.1776 21.9761C24.0894 25.334 21.6034 29.2599 20.6587 30.7413C17.3275 35.9017 11.6345 45.1361 11.6345 45.3583C11.6345 45.9262 14.9658 46.5188 18.0981 46.4941C20.7582 46.4941 21.4791 46.3954 23.1944 45.8275C28.5642 44.0497 32.3927 40.2473 34.1826 34.9141C34.7792 33.161 34.8538 32.5438 34.8538 29.6055C34.8538 26.5933 34.8041 26.0747 34.1577 24.297C33.3125 21.8526 32.3429 20.1242 30.9011 18.544C30.2796 17.8527 29.7824 17.2354 29.7824 17.1613C29.7824 17.0873 30.1553 17.0132 30.6027 17.0132C32.1441 16.9885 34.8787 16.2725 36.6686 15.4083C39.801 13.8774 42.6847 10.717 43.6045 7.80347L44.0023 6.51955L42.0632 3.26035C40.9694 1.4826 40.0247 0.00114822 39.9501 0.00114822C39.8755 -0.0235443 39.6518 0.346821 39.428 0.766563Z" fill="black"/>
<path d="M48.7757 16.47C47.1598 17.6305 45.0716 20.1243 44.1021 22.0255C41.4918 27.1612 41.6409 32.9635 44.475 37.9511C44.9224 38.7165 46.1406 40.198 47.1598 41.235C49.3724 43.4325 52.0076 44.8892 55.0405 45.5312C58.6452 46.346 63.7912 45.6547 66.5507 43.9757L67.3213 43.5065L62.8963 36.4943C56.8801 26.9883 49.8696 15.9268 49.795 15.828C49.7702 15.8033 49.2978 16.0996 48.7757 16.47Z" fill="black"/>
<path d="M66.5008 45.8275C63.8159 51.5558 65.1335 58.2223 69.7823 62.4692L71.3733 63.9259H75.6741C78.0607 63.9259 79.9998 63.8766 79.9998 63.8025C79.9998 63.7284 79.0551 62.1976 77.9364 60.3951C76.7928 58.6174 74.8786 55.5557 73.6853 53.6052C71.1247 49.4324 68.0918 44.667 67.6941 44.2226C67.4703 43.9757 67.2217 44.3214 66.5008 45.8275Z" fill="black"/>
<path d="M36.7436 47.6546C29.4099 48.7163 23.7915 54.6175 22.8717 62.1976L22.6479 64L34.357 63.8519C40.7958 63.7531 48.2787 63.679 50.9884 63.679H55.9355L55.7615 62.1235C54.6677 52.7163 46.2153 46.2472 36.7436 47.6546Z" fill="black"/>
<path d="M7.25951 56.0002C4.52491 56.4446 4.47519 56.4693 2.18807 60.1235C1.01964 61.9754 0.050103 63.5803 0.000382906 63.7037C-0.0493372 63.8272 4.74865 63.9259 11.1128 63.9259C17.2781 63.9259 22.3247 63.8272 22.3247 63.7284C22.3247 63.2593 19.8138 60.0001 18.9189 59.3087C15.4882 56.6421 11.1377 55.4076 7.25951 56.0002Z" fill="black"/>
</svg>
